# xmcd
#
# Track frame offsets:
#	150
#	11207
#	22407
#	36342
#	49817
#	62197
#	74000
#	82860
#	95157
#	104927
#	116795
#	127570
#	140750
#	152277
#	163482
#	174360
#	184792
#	197767
#	208732
#	219982
#	232260
#	241265
#	252447
#	265417
#	278132
#	290605
#	301795
#	311935
#
# Disc length: 4317 seconds
#
# Revision: 1
# Processed by: cddbd v1.4PL0 Copyright (c) Steve Scherf et al.
# Submitted via: CDmax 1.8
#
DISCID=b910db1c
DTITLE=Pee-Wee King - Pee -Wee King And His Golden West Cowboys, CD #4
DYEAR=1900
DGENRE=Country
TTITLE0=The Crying Steel Guitar Waltz
TTITLE1=Ragtime Annie Lee
TTITLE2=Slow Bloke
TTITLE3=Slow Coach
TTITLE4=Silver And Gold
TTITLE5=If And When
TTITLE6=Busybody
TTITLE7=I Don't Mind
TTITLE8=Two-Faced Clock
TTITLE9=A Mighty Pretty Waltz
TTITLE10=Tennessee Tango
TTITLE11=The Crazy Waltz
TTITLE12=Varsoviana
TTITLE13=San Antonio Rose
TTITLE14=My Adobe Hacienda
TTITLE15=The One Rose (That's Left In My Heart)
TTITLE16=Under The Double Eagle
TTITLE17=Spanish Two Step
TTITLE18=Over The Waves
TTITLE19=Steel Guitar Rag
TTITLE20=Screwball
TTITLE21=Last Night On The Back Porch
TTITLE22=Till I Waltz Again With You
TTITLE23=Gone
TTITLE24=I'll Go On Alone
TTITLE25=That's Me Without You
TTITLE26=Your Kisses Aren't Kisses Anymore
TTITLE27=Here Lies My Heart
EXTD=
EXTT0=
EXTT1=
EXTT2=
EXTT3=
EXTT4=
EXTT5=
EXTT6=
EXTT7=
EXTT8=
EXTT9=
EXTT10=
EXTT11=
EXTT12=
EXTT13=
EXTT14=
EXTT15=
EXTT16=
EXTT17=
EXTT18=
EXTT19=
EXTT20=
EXTT21=
EXTT22=
EXTT23=
EXTT24=
EXTT25=
EXTT26=
EXTT27=
PLAYORDER=
